<svg xmlns="http://www.w3.org/2000/svg" width="735.9183349609375" height="762.281494140625" viewBox="-256.79583740234375 -248.7091522216797 735.9183349609375 762.281494140625"><title>Neo4j Graph Visualization</title><desc>Created using Neo4j (http://www.neo4j.com/)</desc><g class="layer relationships"><g class="relationship" transform="translate(227.29204199162427 295.53398166830533) rotate(296.7664254650801)"><path class="outline" fill="#A5ABB6" stroke="none" d="M 25 0.5 L 31.04702434966093 0.5 L 31.04702434966093 -0.5 L 25 -0.5 Z M 95.98035870024687 0.5 L 102.0273830499078 0.5 L 102.0273830499078 3.5 L 109.0273830499078 0 L 102.0273830499078 -3.5 L 102.0273830499078 -0.5 L 95.98035870024687 -0.5 Z"/><text text-anchor="middle" pointer-events="none" font-size="8px" fill="#000000" x="63.5136915249539" y="3" font-family="sans-serif">CONTAINED_IN</text></g><g class="relationship" transform="translate(93.98528303162281 281.4603669974511) rotate(318.36105593220907)"><path class="outline" fill="#A5ABB6" stroke="none" d="M 25 0.5 L 26.94116276806998 0.5 L 26.94116276806998 -0.5 L 25 -0.5 Z M 52.94116276806998 0.5 L 54.88232553613996 0.5 L 54.88232553613996 3.5 L 61.88232553613996 0 L 54.88232553613996 -3.5 L 54.88232553613996 -0.5 L 52.94116276806998 -0.5 Z"/><text text-anchor="middle" pointer-events="none" font-size="8px" fill="#000000" x="39.94116276806998" y="3" font-family="sans-serif">CO…</text></g><g class="relationship" transform="translate(93.98528303162281 281.4603669974511) rotate(366.0265720753839)"><path class="outline" fill="#A5ABB6" stroke="none" d="M 25 0.5 L 31.057131982774024 0.5 L 31.057131982774024 -0.5 L 25 -0.5 Z M 95.99046633335996 0.5 L 102.04759831613399 0.5 L 102.04759831613399 3.5 L 109.04759831613399 0 L 102.04759831613399 -3.5 L 102.04759831613399 -0.5 L 95.99046633335996 -0.5 Z"/><text text-anchor="middle" pointer-events="none" font-size="8px" fill="#000000" x="63.52379915806699" y="3" font-family="sans-serif">CONTAINED_IN</text></g><g class="relationship" transform="translate(93.98528303162281 281.4603669974511) rotate(486.6642538527227)"><path class="outline" fill="#A5ABB6" stroke="none" d="M 25 0.5 L 25.763166764124605 0.5 L 25.763166764124605 -0.5 L 25 -0.5 Z M 69.39650187765 0.5 L 70.1596686417746 0.5 L 70.1596686417746 3.5 L 77.1596686417746 0 L 70.1596686417746 -3.5 L 70.1596686417746 -0.5 L 69.39650187765 -0.5 Z"/><text text-anchor="middle" pointer-events="none" font-size="8px" fill="#000000" x="47.5798343208873" y="3" transform="rotate(180 47.5798343208873 0)" font-family="sans-serif">CONTAI…</text></g><g class="relationship" transform="translate(93.98528303162281 281.4603669974511) rotate(412.82277546519657)"><path class="outline" fill="#A5ABB6" stroke="none" d="M 25 0.5 L 25.10590688478579 0.5 L 25.10590688478579 -0.5 L 25 -0.5 Z M 60.872573297139304 0.5 L 60.97848018192509 0.5 L 60.97848018192509 3.5 L 67.9784801819251 0 L 60.97848018192509 -3.5 L 60.97848018192509 -0.5 L 60.872573297139304 -0.5 Z"/><text text-anchor="middle" pointer-events="none" font-size="8px" fill="#000000" x="42.98924009096255" y="3" font-family="sans-serif">TRAN…</text></g><g class="relationship" transform="translate(32.98321004635651 363.4075755435476) rotate(526.8809041011837)"><path class="outline" fill="#A5ABB6" stroke="none" d="M 25 0.5 L 25.952531681152358 0.5 L 25.952531681152358 -0.5 L 25 -0.5 Z M 80.68586526879884 0.5 L 81.6383969499512 0.5 L 81.6383969499512 3.5 L 88.6383969499512 0 L 81.6383969499512 -3.5 L 81.6383969499512 -0.5 L 80.68586526879884 -0.5 Z"/><text text-anchor="middle" pointer-events="none" font-size="8px" fill="#000000" x="53.3191984749756" y="3" transform="rotate(180 53.3191984749756 0)" font-family="sans-serif">CONTAINE…</text></g><g class="relationship" transform="translate(150.17054599643978 355.54284807438995) rotate(322.1132232073178)"><path class="outline" fill="#A5ABB6" stroke="none" d="M 25 0.5 L 27.025620083960902 0.5 L 27.025620083960902 -0.5 L 25 -0.5 Z M 63.69228611484469 0.5 L 65.7179061988056 0.5 L 65.7179061988056 3.5 L 72.7179061988056 0 L 65.7179061988056 -3.5 L 65.7179061988056 -0.5 L 63.69228611484469 -0.5 Z"/><text text-anchor="middle" pointer-events="none" font-size="8px" fill="#000000" x="45.3589530994028" y="3" font-family="sans-serif">CONT…</text></g><g class="relationship" transform="translate(150.17054599643978 355.54284807438995) rotate(536.1604982860671)"><path class="outline" fill="#A5ABB6" stroke="none" d="M 25 0.5 L 27.858808183484953 0.5 L 27.858808183484953 -0.5 L 25 -0.5 Z M 82.59214177113144 0.5 L 85.45094995461639 0.5 L 85.45094995461639 3.5 L 92.45094995461639 0 L 85.45094995461639 -3.5 L 85.45094995461639 -0.5 L 82.59214177113144 -0.5 Z"/><text text-anchor="middle" pointer-events="none" font-size="8px" fill="#000000" x="55.225474977308195" y="3" transform="rotate(180 55.225474977308195 0)" font-family="sans-serif">CONTAINE…</text></g><g class="relationship" transform="translate(150.17054599643978 355.54284807438995) rotate(273.79616370461235)"><path class="outline" fill="#A5ABB6" stroke="none" d="M 25 0.5 L 30.083293632190248 0.5 L 30.083293632190248 -0.5 L 25 -0.5 Z M 95.01662798277619 0.5 L 100.09992161496643 0.5 L 100.09992161496643 3.5 L 107.09992161496643 0 L 100.09992161496643 -3.5 L 100.09992161496643 -0.5 L 95.01662798277619 -0.5 Z"/><text text-anchor="middle" pointer-events="none" font-size="8px" fill="#000000" x="62.54996080748322" y="3" font-family="sans-serif">CONTAINED_IN</text></g><g class="relationship" transform="translate(-77.68926717674297 389.20075384047726) rotate(421.16133837090064)"><path class="outline" fill="#A5ABB6" stroke="none" d="M 25 0.5 L 26.836980968204415 0.5 L 26.836980968204415 -0.5 L 25 -0.5 Z M 75.03698173114387 0.5 L 76.87396269934828 0.5 L 76.87396269934828 3.5 L 83.87396269934828 0 L 76.87396269934828 -3.5 L 76.87396269934828 -0.5 L 75.03698173114387 -0.5 Z"/><text text-anchor="middle" pointer-events="none" font-size="8px" fill="#000000" x="50.93698134967414" y="3" font-family="sans-serif">SOURCE…</text></g><g class="relationship" transform="translate(158.9164975900817 223.7327664364441) rotate(258.20229433032273)"><path class="outline" fill="#A5ABB6" stroke="none" d="M 25 0.5 L 27.664879778644 0.5 L 27.664879778644 -0.5 L 25 -0.5 Z M 84.7982148921694 0.5 L 87.46309467081339 0.5 L 87.46309467081339 3.5 L 94.46309467081339 0 L 87.46309467081339 -3.5 L 87.46309467081339 -0.5 L 84.7982148921694 -0.5 Z"/><text text-anchor="middle" pointer-events="none" font-size="8px" fill="#000000" x="56.231547335406695" y="3" transform="rotate(180 56.231547335406695 0)" font-family="sans-serif">GENOME_OF</text></g><g class="relationship" transform="translate(158.9164975900817 223.7327664364441) rotate(406.39992835641624)"><path class="outline" fill="#A5ABB6" stroke="none" d="M 25 0.5 L 25.37476494749881 0.5 L 25.37476494749881 -0.5 L 25 -0.5 Z M 66.77476647337772 0.5 L 67.14953142087653 0.5 L 67.14953142087653 3.5 L 74.14953142087653 0 L 67.14953142087653 -3.5 L 67.14953142087653 -0.5 L 66.77476647337772 -0.5 Z"/><text text-anchor="middle" pointer-events="none" font-size="8px" fill="#000000" x="46.074765710438264" y="3" font-family="sans-serif">CONTA…</text></g><g class="relationship" transform="translate(230.52899145215167 40.81634927225118) rotate(367.83802955974625)"><path class="outline" fill="#A5ABB6" stroke="none" d="M 25 0.5 L 38.03353092607193 0.5 L 38.03353092607193 -0.5 L 25 -0.5 Z M 75.86686489518814 0.5 L 88.90039582126008 0.5 L 88.90039582126008 3.5 L 95.90039582126008 0 L 88.90039582126008 -3.5 L 88.90039582126008 -0.5 L 75.86686489518814 -0.5 Z"/><text text-anchor="middle" pointer-events="none" font-size="8px" fill="#000000" x="56.95019791063004" y="3" font-family="sans-serif">PARENT</text></g><g class="relationship" transform="translate(350.2998804330211 57.303916177941495) rotate(336.40956422372926)"><path class="outline" fill="#A5ABB6" stroke="none" d="M 25 0.5 L 32.04610132131702 0.5 L 32.04610132131702 -0.5 L 25 -0.5 Z M 69.87943529043324 0.5 L 76.92553661175025 0.5 L 76.92553661175025 3.5 L 83.92553661175025 0 L 76.92553661175025 -3.5 L 76.92553661175025 -0.5 L 69.87943529043324 -0.5 Z"/><text text-anchor="middle" pointer-events="none" font-size="8px" fill="#000000" x="50.96276830587512" y="3" font-family="sans-serif">PARENT</text></g><g class="relationship" transform="translate(450.1224604909258 13.71234547051057) rotate(246.6710000772141)"><path class="outline" fill="#A5ABB6" stroke="none" d="M 25 0.5 L 35.43150528882949 0.5 L 35.43150528882949 -0.5 L 25 -0.5 Z M 73.26483925794571 0.5 L 83.6963445467752 0.5 L 83.6963445467752 3.5 L 90.6963445467752 0 L 83.6963445467752 -3.5 L 83.6963445467752 -0.5 L 73.26483925794571 -0.5 Z"/><text text-anchor="middle" pointer-events="none" font-size="8px" fill="#000000" x="54.3481722733876" y="3" transform="rotate(180 54.3481722733876 0)" font-family="sans-serif">PARENT</text></g><g class="relationship" transform="translate(404.3055142808318 -92.5253671435488) rotate(218.14769681949122)"><path class="outline" fill="#A5ABB6" stroke="none" d="M 25 0.5 L 35.46185078978387 0.5 L 35.46185078978387 -0.5 L 25 -0.5 Z M 73.29518475890008 0.5 L 83.75703554868394 0.5 L 83.75703554868394 3.5 L 90.75703554868394 0 L 83.75703554868394 -3.5 L 83.75703554868394 -0.5 L 73.29518475890008 -0.5 Z"/><text text-anchor="middle" pointer-events="none" font-size="8px" fill="#000000" x="54.37851777434197" y="3" transform="rotate(180 54.37851777434197 0)" font-family="sans-serif">PARENT</text></g><g class="relationship" transform="translate(313.2717404843104 -164.02741821471074) rotate(202.0166790896023)"><path class="outline" fill="#A5ABB6" stroke="none" d="M 25 0.5 L 34.072535439927044 0.5 L 34.072535439927044 -0.5 L 25 -0.5 Z M 71.90586940904325 0.5 L 80.9784048489703 0.5 L 80.9784048489703 3.5 L 87.9784048489703 0 L 80.9784048489703 -3.5 L 80.9784048489703 -0.5 L 71.90586940904325 -0.5 Z"/><text text-anchor="middle" pointer-events="none" font-size="8px" fill="#000000" x="52.98920242448515" y="3" transform="rotate(180 52.98920242448515 0)" font-family="sans-serif">PARENT</text></g><g class="relationship" transform="translate(208.53231231153632 -206.38036555321526) rotate(186.96372746245135)"><path class="outline" fill="#A5ABB6" stroke="none" d="M 25 0.5 L 32.55152650659796 0.5 L 32.55152650659796 -0.5 L 25 -0.5 Z M 70.38486047571416 0.5 L 77.93638698231213 0.5 L 77.93638698231213 3.5 L 84.93638698231213 0 L 77.93638698231213 -3.5 L 77.93638698231213 -0.5 L 70.38486047571416 -0.5 Z"/><text text-anchor="middle" pointer-events="none" font-size="8px" fill="#000000" x="51.468193491156065" y="3" transform="rotate(180 51.468193491156065 0)" font-family="sans-serif">PARENT</text></g><g class="relationship" transform="translate(99.40691449093582 -219.70915894272977) rotate(527.8674763585484)"><path class="outline" fill="#A5ABB6" stroke="none" d="M 25 0.5 L 31.48674919335304 0.5 L 31.48674919335304 -0.5 L 25 -0.5 Z M 69.32008316246925 0.5 L 75.8068323558223 0.5 L 75.8068323558223 3.5 L 82.8068323558223 0 L 75.8068323558223 -3.5 L 75.8068323558223 -0.5 L 69.32008316246925 -0.5 Z"/><text text-anchor="middle" pointer-events="none" font-size="8px" fill="#000000" x="50.40341617791115" y="3" transform="rotate(180 50.40341617791115 0)" font-family="sans-serif">PARENT</text></g><g class="relationship" transform="translate(-5.991954201287474 -197.05101292422583) rotate(512.5122818601565)"><path class="outline" fill="#A5ABB6" stroke="none" d="M 25 0.5 L 30.99127680690132 0.5 L 30.99127680690132 -0.5 L 25 -0.5 Z M 68.82461077601752 0.5 L 74.81588758291885 0.5 L 74.81588758291885 3.5 L 81.81588758291885 0 L 74.81588758291885 -3.5 L 74.81588758291885 -0.5 L 68.82461077601752 -0.5 Z"/><text text-anchor="middle" pointer-events="none" font-size="8px" fill="#000000" x="49.907943791459424" y="3" transform="rotate(180 49.907943791459424 0)" font-family="sans-serif">PARENT</text></g><g class="relationship" transform="translate(-100.74937409442893 -147.74923592459186) rotate(501.3814901723539)"><path class="outline" fill="#A5ABB6" stroke="none" d="M 25 0.5 L 30.855533351320588 0.5 L 30.855533351320588 -0.5 L 25 -0.5 Z M 68.6888673204368 0.5 L 74.54440067175739 0.5 L 74.54440067175739 3.5 L 81.54440067175739 0 L 74.54440067175739 -3.5 L 74.54440067175739 -0.5 L 68.6888673204368 -0.5 Z"/><text text-anchor="middle" pointer-events="none" font-size="8px" fill="#000000" x="49.77220033587869" y="3" transform="rotate(180 49.77220033587869 0)" font-family="sans-serif">PARENT</text></g><g class="relationship" transform="translate(-183.99452618491475 -81.25146176683631) rotate(450.3587064965549)"><path class="outline" fill="#A5ABB6" stroke="none" d="M 25 0.5 L 30.426400467800555 0.5 L 30.426400467800555 -0.5 L 25 -0.5 Z M 68.25973443691677 0.5 L 73.68613490471732 0.5 L 73.68613490471732 3.5 L 80.68613490471732 0 L 73.68613490471732 -3.5 L 73.68613490471732 -0.5 L 68.25973443691677 -0.5 Z"/><text text-anchor="middle" pointer-events="none" font-size="8px" fill="#000000" x="49.34306745235866" y="3" transform="rotate(180 49.34306745235866 0)" font-family="sans-serif">PARENT</text></g><g class="relationship" transform="translate(-184.65618147363313 24.43260194845153) rotate(474.61178936545286)"><path class="outline" fill="#A5ABB6" stroke="none" d="M 25 0.5 L 29.375624344828466 0.5 L 29.375624344828466 -0.5 L 25 -0.5 Z M 67.20895831394468 0.5 L 71.58458265877314 0.5 L 71.58458265877314 3.5 L 78.58458265877314 0 L 71.58458265877314 -3.5 L 71.58458265877314 -0.5 L 67.20895831394468 -0.5 Z"/><text text-anchor="middle" pointer-events="none" font-size="8px" fill="#000000" x="48.29229132938657" y="3" transform="rotate(180 48.29229132938657 0)" font-family="sans-serif">PARENT</text></g><g class="relationship" transform="translate(-227.79583206310042 118.60657028158954) rotate(444.42834534806747)"><path class="outline" fill="#A5ABB6" stroke="none" d="M 25 0.5 L 29.38221839673485 0.5 L 29.38221839673485 -0.5 L 25 -0.5 Z M 67.21555236585107 0.5 L 71.59777076258591 0.5 L 71.59777076258591 3.5 L 78.59777076258591 0 L 71.59777076258591 -3.5 L 71.59777076258591 -0.5 L 67.21555236585107 -0.5 Z"/><text text-anchor="middle" pointer-events="none" font-size="8px" fill="#000000" x="48.298885381292955" y="3" font-family="sans-serif">PARENT</text></g><g class="relationship" transform="translate(134.49144905043988 106.79326074155988) rotate(325.5112914982465)"><path class="outline" fill="#A5ABB6" stroke="none" d="M 25 0.5 L 45.30839528875827 0.5 L 45.30839528875827 -0.5 L 25 -0.5 Z M 64.20839490728855 0.5 L 84.51679019604681 0.5 L 84.51679019604681 3.5 L 91.51679019604681 0 L 84.51679019604681 -3.5 L 84.51679019604681 -0.5 L 64.20839490728855 -0.5 Z"/><text text-anchor="middle" pointer-events="none" font-size="8px" fill="#000000" x="54.758395098023406" y="3" font-family="sans-serif">ISA</text></g></g><g class="layer nodes"><g class="node" transform="translate(93.98528303162281,281.4603669974511)"><circle class="outline" cx="0" cy="0" r="25" fill="#A5ABB6" stroke="#9AA1AC" stroke-width="2px"/><text text-anchor="middle" pointer-events="none" font-family="sans-serif" dy="1.5625" font-size="25" fill="#FFFFFF"/><text text-anchor="middle" pointer-events="none" x="0" y="5" font-size="10px" fill="#FFFFFF" font-family="sans-serif"> DNAmer</text></g><g class="node" transform="translate(32.98321004635651,363.4075755435476)"><circle class="outline" cx="0" cy="0" r="25" fill="#57C7E3" stroke="#23b3d7" stroke-width="2px"/><text text-anchor="middle" pointer-events="none" font-family="sans-serif" dy="1.5625" font-size="25" fill="#2A2C34"/><text text-anchor="middle" pointer-events="none" x="0" y="5" font-size="10px" fill="#2A2C34" font-family="sans-serif"> Read</text></g><g class="node" transform="translate(150.17054599643978,355.54284807438995)"><circle class="outline" cx="0" cy="0" r="25" fill="#A5ABB6" stroke="#9AA1AC" stroke-width="2px"/><text text-anchor="middle" pointer-events="none" font-family="sans-serif" dy="1.5625" font-size="25" fill="#FFFFFF"/><text text-anchor="middle" pointer-events="none" x="0" y="5" font-size="10px" fill="#FFFFFF" font-family="sans-serif"> AAmer</text></g><g class="node" transform="translate(-77.68926717674297,389.20075384047726)"><circle class="outline" cx="0" cy="0" r="25" fill="#F16667" stroke="#eb2728" stroke-width="2px"/><text text-anchor="middle" pointer-events="none" font-family="sans-serif" dy="1.5625" font-size="25" fill="#FFFFFF"/><text text-anchor="middle" pointer-events="none" x="0" y="5" font-size="10px" fill="#FFFFFF" font-family="sans-serif"> Dataset</text></g><g class="node" transform="translate(-25.174469549895836,484.5723207987189)"><circle class="outline" cx="0" cy="0" r="25" fill="#D9C8AE" stroke="#c0a378" stroke-width="2px"/><text text-anchor="middle" pointer-events="none" font-family="sans-serif" dy="1.5625" font-size="25" fill="#2A2C34"/><text text-anchor="middle" pointer-events="none" x="0" y="5" font-size="10px" fill="#2A2C34" font-family="sans-serif"> Environ…</text></g><g class="node" transform="translate(158.9164975900817,223.7327664364441)"><circle class="outline" cx="0" cy="0" r="25" fill="#8DCC93" stroke="#5db665" stroke-width="2px"/><text text-anchor="middle" pointer-events="none" font-family="sans-serif" dy="1.5625" font-size="25" fill="#2A2C34"/><text text-anchor="middle" pointer-events="none" x="0" y="5" font-size="10px" fill="#2A2C34" font-family="sans-serif"> Genome</text></g><g class="node" transform="translate(230.52899145215167,40.81634927225118)"><circle class="outline" cx="0" cy="0" r="25" fill="#ECB5C9" stroke="#da7298" stroke-width="2px"/><text text-anchor="middle" pointer-events="none" font-family="sans-serif" dy="1.5625" font-size="25" fill="#2A2C34"/><text text-anchor="middle" pointer-events="none" x="0" y="5" font-size="10px" fill="#2A2C34" font-family="sans-serif"> Species</text></g><g class="node" transform="translate(350.2998804330211,57.303916177941495)"><circle class="outline" cx="0" cy="0" r="25" fill="#4C8EDA" stroke="#2870c2" stroke-width="2px"/><text text-anchor="middle" pointer-events="none" font-family="sans-serif" dy="1.5625" font-size="25" fill="#FFFFFF"/><text text-anchor="middle" pointer-events="none" x="0" y="5" font-size="10px" fill="#FFFFFF" font-family="sans-serif"> Genus</text></g><g class="node" transform="translate(450.1224604909258,13.71234547051057)"><circle class="outline" cx="0" cy="0" r="25" fill="#FFC454" stroke="#d7a013" stroke-width="2px"/><text text-anchor="middle" pointer-events="none" font-family="sans-serif" dy="1.5625" font-size="25" fill="#2A2C34"/><text text-anchor="middle" pointer-events="none" x="0" y="5" font-size="10px" fill="#2A2C34" font-family="sans-serif"> Family</text></g><g class="node" transform="translate(404.3055142808318,-92.5253671435488)"><circle class="outline" cx="0" cy="0" r="25" fill="#DA7194" stroke="#cc3c6c" stroke-width="2px"/><text text-anchor="middle" pointer-events="none" font-family="sans-serif" dy="1.5625" font-size="25" fill="#FFFFFF"/><text text-anchor="middle" pointer-events="none" x="0" y="5" font-size="10px" fill="#FFFFFF" font-family="sans-serif"> Order</text></g><g class="node" transform="translate(313.2717404843104,-164.02741821471074)"><circle class="outline" cx="0" cy="0" r="25" fill="#569480" stroke="#447666" stroke-width="2px"/><text text-anchor="middle" pointer-events="none" font-family="sans-serif" dy="1.5625" font-size="25" fill="#FFFFFF"/><text text-anchor="middle" pointer-events="none" x="0" y="5" font-size="10px" fill="#FFFFFF" font-family="sans-serif"> Subclass</text></g><g class="node" transform="translate(208.53231231153632,-206.38036555321526)"><circle class="outline" cx="0" cy="0" r="25" fill="#A5ABB6" stroke="#9AA1AC" stroke-width="2px"/><text text-anchor="middle" pointer-events="none" font-family="sans-serif" dy="1.5625" font-size="25" fill="#FFFFFF"/><text text-anchor="middle" pointer-events="none" x="0" y="5" font-size="10px" fill="#FFFFFF" font-family="sans-serif"> Class</text></g><g class="node" transform="translate(99.40691449093582,-219.70915894272977)"><circle class="outline" cx="0" cy="0" r="25" fill="#A5ABB6" stroke="#9AA1AC" stroke-width="2px"/><text text-anchor="middle" pointer-events="none" font-family="sans-serif" dy="1.5625" font-size="25" fill="#FFFFFF"/><text text-anchor="middle" pointer-events="none" x="0" y="5" font-size="10px" fill="#FFFFFF" font-family="sans-serif"> Subphyl…</text></g><g class="node" transform="translate(-5.991954201287474,-197.05101292422583)"><circle class="outline" cx="0" cy="0" r="25" fill="#A5ABB6" stroke="#9AA1AC" stroke-width="2px"/><text text-anchor="middle" pointer-events="none" font-family="sans-serif" dy="1.5625" font-size="25" fill="#FFFFFF"/><text text-anchor="middle" pointer-events="none" x="0" y="5" font-size="10px" fill="#FFFFFF" font-family="sans-serif"> Phylum</text></g><g class="node" transform="translate(-100.74937409442893,-147.74923592459186)"><circle class="outline" cx="0" cy="0" r="25" fill="#A5ABB6" stroke="#9AA1AC" stroke-width="2px"/><text text-anchor="middle" pointer-events="none" font-family="sans-serif" dy="1.5625" font-size="25" fill="#FFFFFF"/><text text-anchor="middle" pointer-events="none" x="0" y="5" font-size="10px" fill="#FFFFFF" font-family="sans-serif"> Subking…</text></g><g class="node" transform="translate(-183.99452618491475,-81.25146176683631)"><circle class="outline" cx="0" cy="0" r="25" fill="#A5ABB6" stroke="#9AA1AC" stroke-width="2px"/><text text-anchor="middle" pointer-events="none" font-family="sans-serif" dy="1.5625" font-size="25" fill="#FFFFFF"/><text text-anchor="middle" pointer-events="none" x="0" y="5" font-size="10px" fill="#FFFFFF" font-family="sans-serif"> Kingdom</text></g><g class="node" transform="translate(-184.65618147363313,24.43260194845153)"><circle class="outline" cx="0" cy="0" r="25" fill="#A5ABB6" stroke="#9AA1AC" stroke-width="2px"/><text text-anchor="middle" pointer-events="none" font-family="sans-serif" dy="1.5625" font-size="25" fill="#FFFFFF"/><text text-anchor="middle" pointer-events="none" x="0" y="5" font-size="10px" fill="#FFFFFF" font-family="sans-serif"> Clade</text></g><g class="node" transform="translate(-227.79583206310042,118.60657028158954)"><circle class="outline" cx="0" cy="0" r="25" fill="#A5ABB6" stroke="#9AA1AC" stroke-width="2px"/><text text-anchor="middle" pointer-events="none" font-family="sans-serif" dy="1.5625" font-size="25" fill="#FFFFFF"/><text text-anchor="middle" pointer-events="none" x="0" y="5" font-size="10px" fill="#FFFFFF" font-family="sans-serif"> Superki…</text></g><g class="node" transform="translate(-217.7374696669876,221.71489900864128)"><circle class="outline" cx="0" cy="0" r="25" fill="#A5ABB6" stroke="#9AA1AC" stroke-width="2px"/><text text-anchor="middle" pointer-events="none" font-family="sans-serif" dy="1.5625" font-size="25" fill="#FFFFFF"/><text text-anchor="middle" pointer-events="none" x="0" y="5" font-size="10px" fill="#FFFFFF" font-family="sans-serif"> Root</text></g><g class="node" transform="translate(227.29204199162427,295.53398166830533)"><circle class="outline" cx="0" cy="0" r="25" fill="#A5ABB6" stroke="#9AA1AC" stroke-width="2px"/><text text-anchor="middle" pointer-events="none" font-family="sans-serif" dy="1.5625" font-size="25" fill="#FFFFFF"/><text text-anchor="middle" pointer-events="none" x="0" y="5" font-size="10px" fill="#FFFFFF" font-family="sans-serif"> Annotati…</text></g><g class="node" transform="translate(134.49144905043988,106.79326074155988)"><circle class="outline" cx="0" cy="0" r="25" fill="#A5ABB6" stroke="#9AA1AC" stroke-width="2px"/><text text-anchor="middle" pointer-events="none" font-family="sans-serif" dy="1.5625" font-size="25" fill="#FFFFFF"/><text text-anchor="middle" pointer-events="none" x="0" y="5" font-size="10px" fill="#FFFFFF" font-family="sans-serif"> Entity</text></g><g class="node" transform="translate(287.65186639675,175.86764970735192)"><circle class="outline" cx="0" cy="0" r="25" fill="#A5ABB6" stroke="#9AA1AC" stroke-width="2px"/><text text-anchor="middle" pointer-events="none" font-family="sans-serif" dy="1.5625" font-size="25" fill="#FFFFFF"/><text text-anchor="middle" pointer-events="none" x="0" y="5" font-size="10px" fill="#FFFFFF" font-family="sans-serif"> Pathway</text></g></g></svg>