<svg xmlns="http://www.w3.org/2000/svg" width="847.514404296875" height="799.4637451171875" viewBox="-333.2090148925781 -291.3370666503906 847.514404296875 799.4637451171875"><title>Neo4j Graph Visualization</title><desc>Created using Neo4j (http://www.neo4j.com/)</desc><g class="layer relationships"><g class="relationship" transform="translate(52.8289448852281 265.8491581762228) rotate(246.10055802664135)"><path class="outline" fill="#A5ABB6" stroke="none" d="M 25 0.5 L 25.34737633931477 0.5 L 25.34737633931477 -0.5 L 25 -0.5 Z M 90.2807106899007 0.5 L 90.62808702921548 0.5 L 90.62808702921548 3.5 L 97.62808702921548 0 L 90.62808702921548 -3.5 L 90.62808702921548 -0.5 L 90.2807106899007 -0.5 Z"/><text text-anchor="middle" pointer-events="none" font-size="8px" fill="#000000" x="57.81404351460774" y="3" transform="rotate(180 57.81404351460774 0)" font-family="sans-serif">CONTAINED_IN</text></g><g class="relationship" transform="translate(153.80620757800025 73.06141534409886) rotate(393.5904985652412)"><path class="outline" fill="#A5ABB6" stroke="none" d="M 25 0.5 L 25.470810714927325 0.5 L 25.470810714927325 -0.5 L 25 -0.5 Z M 69.27080995198787 0.5 L 69.7416206669152 0.5 L 69.7416206669152 3.5 L 76.7416206669152 0 L 69.7416206669152 -3.5 L 69.7416206669152 -0.5 L 69.27080995198787 -0.5 Z"/><text text-anchor="middle" pointer-events="none" font-size="8px" fill="#000000" x="47.3708103334576" y="3" font-family="sans-serif">HOST_OF</text></g><g class="relationship" transform="translate(52.8289448852281 265.8491581762228) rotate(534.3171133119108)"><path class="outline" fill="#A5ABB6" stroke="none" d="M 25 0.5 L 51.86288711339289 0.5 L 51.86288711339289 -0.5 L 25 -0.5 Z M 70.76288673192316 0.5 L 97.62577384531605 0.5 L 97.62577384531605 3.5 L 104.62577384531605 0 L 97.62577384531605 -3.5 L 97.62577384531605 -0.5 L 70.76288673192316 -0.5 Z"/><text text-anchor="middle" pointer-events="none" font-size="8px" fill="#000000" x="61.31288692265802" y="3" transform="rotate(180 61.31288692265802 0)" font-family="sans-serif">ISA</text></g><g class="relationship" transform="translate(52.8289448852281 265.8491581762228) rotate(208.2133657832)"><path class="outline" fill="#A5ABB6" stroke="none" d="M 25 0.5 L 37.90627938291004 0.5 L 37.90627938291004 -0.5 L 25 -0.5 Z M 83.00627785703114 0.5 L 95.91255723994118 0.5 L 95.91255723994118 3.5 L 102.91255723994118 0 L 95.91255723994118 -3.5 L 95.91255723994118 -0.5 L 83.00627785703114 -0.5 Z"/><text text-anchor="middle" pointer-events="none" font-size="8px" fill="#000000" x="60.45627861997059" y="3" transform="rotate(180 60.45627861997059 0)" font-family="sans-serif">CONFERS</text></g><g class="relationship" transform="translate(52.8289448852281 265.8491581762228) rotate(501.2104862827657)"><path class="outline" fill="#A5ABB6" stroke="none" d="M 25 0.5 L 51.644503707932984 0.5 L 51.644503707932984 -0.5 L 25 -0.5 Z M 70.54450332646326 0.5 L 97.18900703439624 0.5 L 97.18900703439624 3.5 L 104.18900703439624 0 L 97.18900703439624 -3.5 L 97.18900703439624 -0.5 L 70.54450332646326 -0.5 Z"/><text text-anchor="middle" pointer-events="none" font-size="8px" fill="#000000" x="61.09450351719812" y="3" transform="rotate(180 61.09450351719812 0)" font-family="sans-serif">ISA</text></g><g class="relationship" transform="translate(52.8289448852281 265.8491581762228) rotate(465.06673105121985)"><path class="outline" fill="#A5ABB6" stroke="none" d="M 25 0.5 L 50.45016756564014 0.5 L 50.45016756564014 -0.5 L 25 -0.5 Z M 69.35016718417042 0.5 L 94.80033474981056 0.5 L 94.80033474981056 3.5 L 101.80033474981056 0 L 94.80033474981056 -3.5 L 94.80033474981056 -0.5 L 69.35016718417042 -0.5 Z"/><text text-anchor="middle" pointer-events="none" font-size="8px" fill="#000000" x="59.90016737490528" y="3" transform="rotate(180 59.90016737490528 0)" font-family="sans-serif">ISA</text></g><g class="relationship" transform="translate(238.55830012352794 129.35031465013233) rotate(279.74952973374417)"><path class="outline" fill="#A5ABB6" stroke="none" d="M 25 0.5 L 41.7982387736316 0.5 L 41.7982387736316 -0.5 L 25 -0.5 Z M 60.698238392161876 0.5 L 77.49647716579348 0.5 L 77.49647716579348 3.5 L 84.49647716579348 0 L 77.49647716579348 -3.5 L 77.49647716579348 -0.5 L 60.698238392161876 -0.5 Z"/><text text-anchor="middle" pointer-events="none" font-size="8px" fill="#000000" x="51.24823858289674" y="3" font-family="sans-serif">ISA</text></g><g class="relationship" transform="translate(238.55830012352794 129.35031465013233) rotate(503.63261663410685)"><path class="outline" fill="#A5ABB6" stroke="none" d="M 25 0.5 L 27.116977336350438 0.5 L 27.116977336350438 -0.5 L 25 -0.5 Z M 84.25031244987582 0.5 L 86.36728978622627 0.5 L 86.36728978622627 3.5 L 93.36728978622627 0 L 86.36728978622627 -3.5 L 86.36728978622627 -0.5 L 84.25031244987582 -0.5 Z"/><text text-anchor="middle" pointer-events="none" font-size="8px" fill="#000000" x="55.68364489311313" y="3" transform="rotate(180 55.68364489311313 0)" font-family="sans-serif">GENOME_OF</text></g><g class="relationship" transform="translate(123.61682427803902 337.09131582371396) rotate(322.0082155826491)"><path class="outline" fill="#A5ABB6" stroke="none" d="M 25 0.5 L 27.271880156335015 0.5 L 27.271880156335015 -0.5 L 25 -0.5 Z M 46.17187977486529 0.5 L 48.443759931200304 0.5 L 48.443759931200304 3.5 L 55.443759931200304 0 L 48.443759931200304 -3.5 L 48.443759931200304 -0.5 L 46.17187977486529 -0.5 Z"/><text text-anchor="middle" pointer-events="none" font-size="8px" fill="#000000" x="36.72187996560015" y="3" font-family="sans-serif">T…</text></g><g class="relationship" transform="translate(123.61682427803902 337.09131582371396) rotate(394.4752640462182)"><path class="outline" fill="#A5ABB6" stroke="none" d="M 25 0.5 L 27.565213003907573 0.5 L 27.565213003907573 -0.5 L 25 -0.5 Z M 76.96521452978648 0.5 L 79.53042753369405 0.5 L 79.53042753369405 3.5 L 86.53042753369405 0 L 79.53042753369405 -3.5 L 79.53042753369405 -0.5 L 76.96521452978648 -0.5 Z"/><text text-anchor="middle" pointer-events="none" font-size="8px" fill="#000000" x="52.265213766847026" y="3" font-family="sans-serif">CONTAIN…</text></g><g class="relationship" transform="translate(123.61682427803902 337.09131582371396) rotate(278.12106286892976)"><path class="outline" fill="#A5ABB6" stroke="none" d="M 25 0.5 L 33.50696029183952 0.5 L 33.50696029183952 -0.5 L 25 -0.5 Z M 98.44029464242546 0.5 L 106.94725493426498 0.5 L 106.94725493426498 3.5 L 113.94725493426498 0 L 106.94725493426498 -3.5 L 106.94725493426498 -0.5 L 98.44029464242546 -0.5 Z"/><text text-anchor="middle" pointer-events="none" font-size="8px" fill="#000000" x="65.97362746713249" y="3" font-family="sans-serif">CONTAINED_IN</text></g><g class="relationship" transform="translate(123.61682427803902 337.09131582371396) rotate(225.18325798192285)"><path class="outline" fill="#A5ABB6" stroke="none" d="M 25 0.5 L 26.015457253494922 0.5 L 26.015457253494922 -0.5 L 25 -0.5 Z M 67.41545877937384 0.5 L 68.43091603286875 0.5 L 68.43091603286875 3.5 L 75.43091603286875 0 L 68.43091603286875 -3.5 L 68.43091603286875 -0.5 L 67.41545877937384 -0.5 Z"/><text text-anchor="middle" pointer-events="none" font-size="8px" fill="#000000" x="46.715458016434376" y="3" transform="rotate(180 46.715458016434376 0)" font-family="sans-serif">CONTA…</text></g><g class="relationship" transform="translate(215.55923452532048 400.22315774020785) rotate(405.79586165414224)"><path class="outline" fill="#A5ABB6" stroke="none" d="M 25 0.5 L 26.83413740957419 0.5 L 26.83413740957419 -0.5 L 25 -0.5 Z M 76.2341389354531 0.5 L 78.06827634502729 0.5 L 78.06827634502729 3.5 L 85.06827634502729 0 L 78.06827634502729 -3.5 L 78.06827634502729 -0.5 L 76.2341389354531 -0.5 Z"/><text text-anchor="middle" pointer-events="none" font-size="8px" fill="#000000" x="51.53413817251364" y="3" font-family="sans-serif">CONTAIN…</text></g><g class="relationship" transform="translate(187.01447301244878 287.5742819180267) rotate(243.56482860876014)"><path class="outline" fill="#A5ABB6" stroke="none" d="M 25 0.5 L 27.32516002938759 0.5 L 27.32516002938759 -0.5 L 25 -0.5 Z M 63.99182606027138 0.5 L 66.31698608965897 0.5 L 66.31698608965897 3.5 L 73.31698608965897 0 L 66.31698608965897 -3.5 L 66.31698608965897 -0.5 L 63.99182606027138 -0.5 Z"/><text text-anchor="middle" pointer-events="none" font-size="8px" fill="#000000" x="45.658493044829484" y="3" transform="rotate(180 45.658493044829484 0)" font-family="sans-serif">CONT…</text></g><g class="relationship" transform="translate(187.01447301244878 287.5742819180267) rotate(435.7807788020352)"><path class="outline" fill="#A5ABB6" stroke="none" d="M 25 0.5 L 27.237921307780034 0.5 L 27.237921307780034 -0.5 L 25 -0.5 Z M 81.97125489542651 0.5 L 84.20917620320655 0.5 L 84.20917620320655 3.5 L 91.20917620320655 0 L 84.20917620320655 -3.5 L 84.20917620320655 -0.5 L 81.97125489542651 -0.5 Z"/><text text-anchor="middle" pointer-events="none" font-size="8px" fill="#000000" x="54.60458810160328" y="3" font-family="sans-serif">CONTAINE…</text></g><g class="relationship" transform="translate(187.01447301244878 287.5742819180267) rotate(189.19659254693795)"><path class="outline" fill="#A5ABB6" stroke="none" d="M 25 0.5 L 31.999752769371284 0.5 L 31.999752769371284 -0.5 L 25 -0.5 Z M 96.93308711995722 0.5 L 103.9328398893285 0.5 L 103.9328398893285 3.5 L 110.9328398893285 0 L 103.9328398893285 -3.5 L 103.9328398893285 -0.5 L 96.93308711995722 -0.5 Z"/><text text-anchor="middle" pointer-events="none" font-size="8px" fill="#000000" x="64.46641994466425" y="3" transform="rotate(180 64.46641994466425 0)" font-family="sans-serif">CONTAINED_IN</text></g><g class="relationship" transform="translate(292.3006949529363 479.12672995973395) rotate(333.2643119786577)"><path class="outline" fill="#A5ABB6" stroke="none" d="M 25 0.5 L 25.469404259154842 0.5 L 25.469404259154842 -0.5 L 25 -0.5 Z M 79.43607143444781 0.5 L 79.90547569360265 0.5 L 79.90547569360265 3.5 L 86.90547569360265 0 L 79.90547569360265 -3.5 L 79.90547569360265 -0.5 L 79.43607143444781 -0.5 Z"/><text text-anchor="middle" pointer-events="none" font-size="8px" fill="#000000" x="52.45273784680133" y="3" font-family="sans-serif">SOURCED…</text></g><g class="relationship" transform="translate(143.24523205551503 199.53745269407028) rotate(274.77322685375793)"><path class="outline" fill="#A5ABB6" stroke="none" d="M 25 0.5 L 31.391433241594598 0.5 L 31.391433241594598 -0.5 L 25 -0.5 Z M 88.52476835511999 0.5 L 94.91620159671459 0.5 L 94.91620159671459 3.5 L 101.91620159671459 0 L 94.91620159671459 -3.5 L 94.91620159671459 -0.5 L 88.52476835511999 -0.5 Z"/><text text-anchor="middle" pointer-events="none" font-size="8px" fill="#000000" x="59.95810079835729" y="3" font-family="sans-serif">GENOME_OF</text></g><g class="relationship" transform="translate(143.24523205551503 199.53745269407028) rotate(503.7435134046849)"><path class="outline" fill="#A5ABB6" stroke="none" d="M 25 0.5 L 25.19657265416872 0.5 L 25.19657265416872 -0.5 L 25 -0.5 Z M 79.9299062418152 0.5 L 80.12647889598392 0.5 L 80.12647889598392 3.5 L 87.12647889598392 0 L 80.12647889598392 -3.5 L 80.12647889598392 -0.5 L 79.9299062418152 -0.5 Z"/><text text-anchor="middle" pointer-events="none" font-size="8px" fill="#000000" x="52.56323944799196" y="3" transform="rotate(180 52.56323944799196 0)" font-family="sans-serif">CONTAINE…</text></g><g class="relationship" transform="translate(257.10058847147707 21.435245940796655) rotate(369.3547994652299)"><path class="outline" fill="#A5ABB6" stroke="none" d="M 25 0.5 L 37.322352244703644 0.5 L 37.322352244703644 -0.5 L 25 -0.5 Z M 75.15568621381985 0.5 L 87.4780384585235 0.5 L 87.4780384585235 3.5 L 94.4780384585235 0 L 87.4780384585235 -3.5 L 87.4780384585235 -0.5 L 75.15568621381985 -0.5 Z"/><text text-anchor="middle" pointer-events="none" font-size="8px" fill="#000000" x="56.23901922926175" y="3" font-family="sans-serif">PARENT</text></g><g class="relationship" transform="translate(374.9896529090856 40.856115126335425) rotate(351.47788602422224)"><path class="outline" fill="#A5ABB6" stroke="none" d="M 25 0.5 L 33.35701550292564 0.5 L 33.35701550292564 -0.5 L 25 -0.5 Z M 71.19034947204185 0.5 L 79.5473649749675 0.5 L 79.5473649749675 3.5 L 86.5473649749675 0 L 79.5473649749675 -3.5 L 79.5473649749675 -0.5 L 71.19034947204185 -0.5 Z"/><text text-anchor="middle" pointer-events="none" font-size="8px" fill="#000000" x="52.27368248748375" y="3" font-family="sans-serif">PARENT</text></g><g class="relationship" transform="translate(485.3053945286134 24.32578591629919) rotate(258.8331544322381)"><path class="outline" fill="#A5ABB6" stroke="none" d="M 25 0.5 L 35.97934120646323 0.5 L 35.97934120646323 -0.5 L 25 -0.5 Z M 73.81267517557944 0.5 L 84.79201638204268 0.5 L 84.79201638204268 3.5 L 91.79201638204268 0 L 84.79201638204268 -3.5 L 84.79201638204268 -0.5 L 73.81267517557944 -0.5 Z"/><text text-anchor="middle" pointer-events="none" font-size="8px" fill="#000000" x="54.89600819102134" y="3" transform="rotate(180 54.89600819102134 0)" font-family="sans-serif">PARENT</text></g><g class="relationship" transform="translate(462.68667186925336 -90.2550522541483) rotate(227.9793986639703)"><path class="outline" fill="#A5ABB6" stroke="none" d="M 25 0.5 L 36.65503701484196 0.5 L 36.65503701484196 -0.5 L 25 -0.5 Z M 74.48837098395816 0.5 L 86.14340799880013 0.5 L 86.14340799880013 3.5 L 93.14340799880013 0 L 86.14340799880013 -3.5 L 86.14340799880013 -0.5 L 74.48837098395816 -0.5 Z"/><text text-anchor="middle" pointer-events="none" font-size="8px" fill="#000000" x="55.571703999400064" y="3" transform="rotate(180 55.571703999400064 0)" font-family="sans-serif">PARENT</text></g><g class="relationship" transform="translate(383.6017381206646 -178.02428437766798) rotate(208.88027605309924)"><path class="outline" fill="#A5ABB6" stroke="none" d="M 25 0.5 L 34.87649538201754 0.5 L 34.87649538201754 -0.5 L 25 -0.5 Z M 72.70982935113375 0.5 L 82.58632473315129 0.5 L 82.58632473315129 3.5 L 89.58632473315129 0 L 82.58632473315129 -3.5 L 82.58632473315129 -0.5 L 72.70982935113375 -0.5 Z"/><text text-anchor="middle" pointer-events="none" font-size="8px" fill="#000000" x="53.79316236657564" y="3" transform="rotate(180 53.79316236657564 0)" font-family="sans-serif">PARENT</text></g><g class="relationship" transform="translate(283.2664178806226 -233.3672995483236) rotate(194.4961037768723)"><path class="outline" fill="#A5ABB6" stroke="none" d="M 25 0.5 L 32.96870084468913 0.5 L 32.96870084468913 -0.5 L 25 -0.5 Z M 70.80203481380534 0.5 L 78.77073565849447 0.5 L 78.77073565849447 3.5 L 85.77073565849447 0 L 78.77073565849447 -3.5 L 78.77073565849447 -0.5 L 70.80203481380534 -0.5 Z"/><text text-anchor="middle" pointer-events="none" font-size="8px" fill="#000000" x="51.88536782924724" y="3" transform="rotate(180 51.88536782924724 0)" font-family="sans-serif">PARENT</text></g><g class="relationship" transform="translate(176.02210575970605 -261.09478403638144) rotate(180.65649685515064)"><path class="outline" fill="#A5ABB6" stroke="none" d="M 25 0.5 L 31.794487002208463 0.5 L 31.794487002208463 -0.5 L 25 -0.5 Z M 69.62782097132467 0.5 L 76.42230797353314 0.5 L 76.42230797353314 3.5 L 83.42230797353314 0 L 76.42230797353314 -3.5 L 76.42230797353314 -0.5 L 69.62782097132467 -0.5 Z"/><text text-anchor="middle" pointer-events="none" font-size="8px" fill="#000000" x="50.71115398676657" y="3" transform="rotate(180 50.71115398676657 0)" font-family="sans-serif">PARENT</text></g><g class="relationship" transform="translate(67.60691490039643 -262.3370630900308) rotate(524.7964852759162)"><path class="outline" fill="#A5ABB6" stroke="none" d="M 25 0.5 L 30.759509158429736 0.5 L 30.759509158429736 -0.5 L 25 -0.5 Z M 68.59284312754595 0.5 L 74.35235228597568 0.5 L 74.35235228597568 3.5 L 81.35235228597568 0 L 74.35235228597568 -3.5 L 74.35235228597568 -0.5 L 68.59284312754595 -0.5 Z"/><text text-anchor="middle" pointer-events="none" font-size="8px" fill="#000000" x="49.67617614298784" y="3" transform="rotate(180 49.67617614298784 0)" font-family="sans-serif">PARENT</text></g><g class="relationship" transform="translate(-35.02314855929423 -234.44633145710043) rotate(513.3339291990101)"><path class="outline" fill="#A5ABB6" stroke="none" d="M 25 0.5 L 30.737646885502713 0.5 L 30.737646885502713 -0.5 L 25 -0.5 Z M 68.57098085461892 0.5 L 74.30862774012164 0.5 L 74.30862774012164 3.5 L 81.30862774012164 0 L 74.30862774012164 -3.5 L 74.30862774012164 -0.5 L 68.57098085461892 -0.5 Z"/><text text-anchor="middle" pointer-events="none" font-size="8px" fill="#000000" x="49.65431387006082" y="3" transform="rotate(180 49.65431387006082 0)" font-family="sans-serif">PARENT</text></g><g class="relationship" transform="translate(-130.0245044387748 -186.73609447332473) rotate(492.6041116937946)"><path class="outline" fill="#A5ABB6" stroke="none" d="M 25 0.5 L 30.830684457130594 0.5 L 30.830684457130594 -0.5 L 25 -0.5 Z M 68.6640184262468 0.5 L 74.4947028833774 0.5 L 74.4947028833774 3.5 L 81.4947028833774 0 L 74.4947028833774 -3.5 L 74.4947028833774 -0.5 L 68.6640184262468 -0.5 Z"/><text text-anchor="middle" pointer-events="none" font-size="8px" fill="#000000" x="49.7473514416887" y="3" transform="rotate(180 49.7473514416887 0)" font-family="sans-serif">PARENT</text></g><g class="relationship" transform="translate(-202.1138350348164 -108.35082700275053) rotate(488.7641957923115)"><path class="outline" fill="#A5ABB6" stroke="none" d="M 25 0.5 L 30.81518174347785 0.5 L 30.81518174347785 -0.5 L 25 -0.5 Z M 68.64851571259406 0.5 L 74.46369745607191 0.5 L 74.46369745607191 3.5 L 81.46369745607191 0 L 74.46369745607191 -3.5 L 74.46369745607191 -0.5 L 68.64851571259406 -0.5 Z"/><text text-anchor="middle" pointer-events="none" font-size="8px" fill="#000000" x="49.731848728035956" y="3" transform="rotate(180 49.731848728035956 0)" font-family="sans-serif">PARENT</text></g><g class="relationship" transform="translate(-268.7725317984143 -25.337954375689197) rotate(469.3573584819542)"><path class="outline" fill="#A5ABB6" stroke="none" d="M 25 0.5 L 31.038649196277476 0.5 L 31.038649196277476 -0.5 L 25 -0.5 Z M 68.87198316539369 0.5 L 74.91063236167116 0.5 L 74.91063236167116 3.5 L 81.91063236167116 0 L 74.91063236167116 -3.5 L 74.91063236167116 -0.5 L 68.87198316539369 -0.5 Z"/><text text-anchor="middle" pointer-events="none" font-size="8px" fill="#000000" x="49.95531618083558" y="3" transform="rotate(180 49.95531618083558 0)" font-family="sans-serif">PARENT</text></g><g class="relationship" transform="translate(153.80620757800025 73.06141534409886) rotate(333.4442776177648)"><path class="outline" fill="#A5ABB6" stroke="none" d="M 25 0.5 L 44.78861485073759 0.5 L 44.78861485073759 -0.5 L 25 -0.5 Z M 63.68861446926786 0.5 L 83.47722932000545 0.5 L 83.47722932000545 3.5 L 90.47722932000545 0 L 83.47722932000545 -3.5 L 83.47722932000545 -0.5 L 63.68861446926786 -0.5 Z"/><text text-anchor="middle" pointer-events="none" font-size="8px" fill="#000000" x="54.238614660002725" y="3" font-family="sans-serif">ISA</text></g></g><g class="layer nodes"><g class="node" transform="translate(123.61682427803902,337.09131582371396)"><circle class="outline" cx="0" cy="0" r="25" fill="#F79767" stroke="#f36924" stroke-width="2px"/><text text-anchor="middle" pointer-events="none" font-family="sans-serif" dy="1.5625" font-size="25" fill="#FFFFFF"/><text text-anchor="middle" pointer-events="none" x="0" y="5" font-size="10px" fill="#FFFFFF" font-family="sans-serif"> DNAmer</text></g><g class="node" transform="translate(215.55923452532048,400.22315774020785)"><circle class="outline" cx="0" cy="0" r="25" fill="#57C7E3" stroke="#23b3d7" stroke-width="2px"/><text text-anchor="middle" pointer-events="none" font-family="sans-serif" dy="1.5625" font-size="25" fill="#2A2C34"/><text text-anchor="middle" pointer-events="none" x="0" y="5" font-size="10px" fill="#2A2C34" font-family="sans-serif"> Read</text></g><g class="node" transform="translate(187.01447301244878,287.5742819180267)"><circle class="outline" cx="0" cy="0" r="25" fill="#F16667" stroke="#eb2728" stroke-width="2px"/><text text-anchor="middle" pointer-events="none" font-family="sans-serif" dy="1.5625" font-size="25" fill="#FFFFFF"/><text text-anchor="middle" pointer-events="none" x="0" y="5" font-size="10px" fill="#FFFFFF" font-family="sans-serif"> AAmer</text></g><g class="node" transform="translate(292.3006949529363,479.12672995973395)"><circle class="outline" cx="0" cy="0" r="25" fill="#D9C8AE" stroke="#c0a378" stroke-width="2px"/><text text-anchor="middle" pointer-events="none" font-family="sans-serif" dy="1.5625" font-size="25" fill="#2A2C34"/><text text-anchor="middle" pointer-events="none" x="0" y="5" font-size="10px" fill="#2A2C34" font-family="sans-serif"> Dataset</text></g><g class="node" transform="translate(392.2425068826101,428.78321281576393)"><circle class="outline" cx="0" cy="0" r="25" fill="#8DCC93" stroke="#5db665" stroke-width="2px"/><text text-anchor="middle" pointer-events="none" font-family="sans-serif" dy="1.5625" font-size="25" fill="#2A2C34"/><text text-anchor="middle" pointer-events="none" x="0" y="5" font-size="10px" fill="#2A2C34" font-family="sans-serif"> Environ…</text></g><g class="node" transform="translate(143.24523205551503,199.53745269407028)"><circle class="outline" cx="0" cy="0" r="25" fill="#ECB5C9" stroke="#da7298" stroke-width="2px"/><text text-anchor="middle" pointer-events="none" font-family="sans-serif" dy="1.5625" font-size="25" fill="#2A2C34"/><text text-anchor="middle" pointer-events="none" x="0" y="5" font-size="10px" fill="#2A2C34" font-family="sans-serif"> Genome</text></g><g class="node" transform="translate(257.10058847147707,21.435245940796655)"><circle class="outline" cx="0" cy="0" r="25" fill="#4C8EDA" stroke="#2870c2" stroke-width="2px"/><text text-anchor="middle" pointer-events="none" font-family="sans-serif" dy="1.5625" font-size="25" fill="#FFFFFF"/><text text-anchor="middle" pointer-events="none" x="0" y="5" font-size="10px" fill="#FFFFFF" font-family="sans-serif"> Species</text></g><g class="node" transform="translate(374.9896529090856,40.856115126335425)"><circle class="outline" cx="0" cy="0" r="25" fill="#FFC454" stroke="#d7a013" stroke-width="2px"/><text text-anchor="middle" pointer-events="none" font-family="sans-serif" dy="1.5625" font-size="25" fill="#2A2C34"/><text text-anchor="middle" pointer-events="none" x="0" y="5" font-size="10px" fill="#2A2C34" font-family="sans-serif"> Genus</text></g><g class="node" transform="translate(485.3053945286134,24.32578591629919)"><circle class="outline" cx="0" cy="0" r="25" fill="#DA7194" stroke="#cc3c6c" stroke-width="2px"/><text text-anchor="middle" pointer-events="none" font-family="sans-serif" dy="1.5625" font-size="25" fill="#FFFFFF"/><text text-anchor="middle" pointer-events="none" x="0" y="5" font-size="10px" fill="#FFFFFF" font-family="sans-serif"> Family</text></g><g class="node" transform="translate(462.68667186925336,-90.2550522541483)"><circle class="outline" cx="0" cy="0" r="25" fill="#569480" stroke="#447666" stroke-width="2px"/><text text-anchor="middle" pointer-events="none" font-family="sans-serif" dy="1.5625" font-size="25" fill="#FFFFFF"/><text text-anchor="middle" pointer-events="none" x="0" y="5" font-size="10px" fill="#FFFFFF" font-family="sans-serif"> Order</text></g><g class="node" transform="translate(383.6017381206646,-178.02428437766798)"><circle class="outline" cx="0" cy="0" r="25" fill="#A5ABB6" stroke="#9AA1AC" stroke-width="2px"/><text text-anchor="middle" pointer-events="none" font-family="sans-serif" dy="1.5625" font-size="25" fill="#FFFFFF"/><text text-anchor="middle" pointer-events="none" x="0" y="5" font-size="10px" fill="#FFFFFF" font-family="sans-serif"> Subclass</text></g><g class="node" transform="translate(283.2664178806226,-233.3672995483236)"><circle class="outline" cx="0" cy="0" r="25" fill="#A5ABB6" stroke="#9AA1AC" stroke-width="2px"/><text text-anchor="middle" pointer-events="none" font-family="sans-serif" dy="1.5625" font-size="25" fill="#FFFFFF"/><text text-anchor="middle" pointer-events="none" x="0" y="5" font-size="10px" fill="#FFFFFF" font-family="sans-serif"> Class</text></g><g class="node" transform="translate(176.02210575970605,-261.09478403638144)"><circle class="outline" cx="0" cy="0" r="25" fill="#A5ABB6" stroke="#9AA1AC" stroke-width="2px"/><text text-anchor="middle" pointer-events="none" font-family="sans-serif" dy="1.5625" font-size="25" fill="#FFFFFF"/><text text-anchor="middle" pointer-events="none" x="0" y="5" font-size="10px" fill="#FFFFFF" font-family="sans-serif"> Subphyl…</text></g><g class="node" transform="translate(67.60691490039643,-262.3370630900308)"><circle class="outline" cx="0" cy="0" r="25" fill="#A5ABB6" stroke="#9AA1AC" stroke-width="2px"/><text text-anchor="middle" pointer-events="none" font-family="sans-serif" dy="1.5625" font-size="25" fill="#FFFFFF"/><text text-anchor="middle" pointer-events="none" x="0" y="5" font-size="10px" fill="#FFFFFF" font-family="sans-serif"> Phylum</text></g><g class="node" transform="translate(-35.02314855929423,-234.44633145710043)"><circle class="outline" cx="0" cy="0" r="25" fill="#A5ABB6" stroke="#9AA1AC" stroke-width="2px"/><text text-anchor="middle" pointer-events="none" font-family="sans-serif" dy="1.5625" font-size="25" fill="#FFFFFF"/><text text-anchor="middle" pointer-events="none" x="0" y="5" font-size="10px" fill="#FFFFFF" font-family="sans-serif"> Subking…</text></g><g class="node" transform="translate(-130.0245044387748,-186.73609447332473)"><circle class="outline" cx="0" cy="0" r="25" fill="#A5ABB6" stroke="#9AA1AC" stroke-width="2px"/><text text-anchor="middle" pointer-events="none" font-family="sans-serif" dy="1.5625" font-size="25" fill="#FFFFFF"/><text text-anchor="middle" pointer-events="none" x="0" y="5" font-size="10px" fill="#FFFFFF" font-family="sans-serif"> Kingdom</text></g><g class="node" transform="translate(-202.1138350348164,-108.35082700275053)"><circle class="outline" cx="0" cy="0" r="25" fill="#A5ABB6" stroke="#9AA1AC" stroke-width="2px"/><text text-anchor="middle" pointer-events="none" font-family="sans-serif" dy="1.5625" font-size="25" fill="#FFFFFF"/><text text-anchor="middle" pointer-events="none" x="0" y="5" font-size="10px" fill="#FFFFFF" font-family="sans-serif"> Clade</text></g><g class="node" transform="translate(-268.7725317984143,-25.337954375689197)"><circle class="outline" cx="0" cy="0" r="25" fill="#A5ABB6" stroke="#9AA1AC" stroke-width="2px"/><text text-anchor="middle" pointer-events="none" font-family="sans-serif" dy="1.5625" font-size="25" fill="#FFFFFF"/><text text-anchor="middle" pointer-events="none" x="0" y="5" font-size="10px" fill="#FFFFFF" font-family="sans-serif"> Superki…</text></g><g class="node" transform="translate(-304.2090295851739,75.52897745323773)"><circle class="outline" cx="0" cy="0" r="25" fill="#A5ABB6" stroke="#9AA1AC" stroke-width="2px"/><text text-anchor="middle" pointer-events="none" font-family="sans-serif" dy="1.5625" font-size="25" fill="#FFFFFF"/><text text-anchor="middle" pointer-events="none" x="0" y="5" font-size="10px" fill="#FFFFFF" font-family="sans-serif"> Root</text></g><g class="node" transform="translate(52.8289448852281,265.8491581762228)"><circle class="outline" cx="0" cy="0" r="25" fill="#A5ABB6" stroke="#9AA1AC" stroke-width="2px"/><text text-anchor="middle" pointer-events="none" font-family="sans-serif" dy="1.5625" font-size="25" fill="#FFFFFF"/><text text-anchor="middle" pointer-events="none" x="0" y="5" font-size="10px" fill="#FFFFFF" font-family="sans-serif"> Annotati…</text></g><g class="node" transform="translate(153.80620757800025,73.06141534409886)"><circle class="outline" cx="0" cy="0" r="25" fill="#A5ABB6" stroke="#9AA1AC" stroke-width="2px"/><text text-anchor="middle" pointer-events="none" font-family="sans-serif" dy="1.5625" font-size="25" fill="#FFFFFF"/><text text-anchor="middle" pointer-events="none" x="0" y="5" font-size="10px" fill="#FFFFFF" font-family="sans-serif"> Entity</text></g><g class="node" transform="translate(3.148299040468661,153.73546072184197)"><circle class="outline" cx="0" cy="0" r="25" fill="#A5ABB6" stroke="#9AA1AC" stroke-width="2px"/><text text-anchor="middle" pointer-events="none" font-family="sans-serif" dy="1.5625" font-size="25" fill="#FFFFFF"/><text text-anchor="middle" pointer-events="none" x="0" y="5" font-size="10px" fill="#FFFFFF" font-family="sans-serif"> Pathway</text></g><g class="node" transform="translate(19.86797636101036,388.29057047863597)"><circle class="outline" cx="0" cy="0" r="25" fill="#A5ABB6" stroke="#9AA1AC" stroke-width="2px"/><text text-anchor="middle" pointer-events="none" font-family="sans-serif" dy="1.5625" font-size="25" fill="#FFFFFF"/><text text-anchor="middle" pointer-events="none" x="0" y="5" font-size="10px" fill="#FFFFFF" font-family="sans-serif"> Toxin</text></g><g class="node" transform="translate(-47.86776680348509,346.7810541975904)"><circle class="outline" cx="0" cy="0" r="25" fill="#A5ABB6" stroke="#9AA1AC" stroke-width="2px"/><text text-anchor="middle" pointer-events="none" font-family="sans-serif" dy="1.5625" font-size="25" fill="#FFFFFF"/><text text-anchor="middle" pointer-events="none" x="0" y="5" font-size="10px" fill="#FFFFFF" font-family="sans-serif"> Virulenc…</text></g><g class="node" transform="translate(-59.88672984074732,205.37768580511764)"><circle class="outline" cx="0" cy="0" r="25" fill="#A5ABB6" stroke="#9AA1AC" stroke-width="2px"/><text text-anchor="middle" pointer-events="none" font-family="sans-serif" dy="1.5625" font-size="25" fill="#FFFFFF"/><text text-anchor="middle" pointer-events="none" x="0" y="5" font-size="10px" fill="#FFFFFF" font-family="sans-serif"> Antibioti…</text></g><g class="node" transform="translate(-76.15974300900328,278.68503135733476)"><circle class="outline" cx="0" cy="0" r="25" fill="#A5ABB6" stroke="#9AA1AC" stroke-width="2px"/><text text-anchor="middle" pointer-events="none" font-family="sans-serif" dy="1.5625" font-size="25" fill="#FFFFFF"/><text text-anchor="middle" pointer-events="none" x="0" y="5" font-size="10px" fill="#FFFFFF" font-family="sans-serif"> Integrase</text></g><g class="node" transform="translate(238.55830012352794,129.35031465013233)"><circle class="outline" cx="0" cy="0" r="25" fill="#A5ABB6" stroke="#9AA1AC" stroke-width="2px"/><text text-anchor="middle" pointer-events="none" font-family="sans-serif" dy="1.5625" font-size="25" fill="#FFFFFF"/><text text-anchor="middle" pointer-events="none" x="0" y="5" font-size="10px" fill="#FFFFFF" font-family="sans-serif"> Host</text></g></g></svg>