<svg xmlns="http://www.w3.org/2000/svg" width="318.1523132324219" height="225.19577026367188" viewBox="-77.6938247680664 -26.3793888092041 318.1523132324219 225.19577026367188"><title>Neo4j Graph Visualization</title><desc>Created using Neo4j (http://www.neo4j.com/)</desc><g class="layer relationships"><g class="relationship" transform="translate(49.62582579142905 64.53269821306088) rotate(515.8574251766341)"><path class="outline" fill="#A5ABB6" stroke="none" d="M 25 0.5 L 25.671979837223887 0.5 L 25.671979837223887 -0.5 L 25 -0.5 Z M 75.0719813631028 0.5 L 75.74396120032668 0.5 L 75.74396120032668 3.5 L 82.74396120032668 0 L 75.74396120032668 -3.5 L 75.74396120032668 -0.5 L 75.0719813631028 -0.5 Z"/><text text-anchor="middle" pointer-events="none" font-size="8px" fill="#000000" x="50.37198060016334" y="3" transform="rotate(180 50.37198060016334 0)" font-family="sans-serif">CONTAIN…</text></g><g class="relationship" transform="translate(110.96275235224039 136.56749543634893) rotate(229.58592988506598)"><path class="outline" fill="#A5ABB6" stroke="none" d="M 25 0.5 L 25.472138578567687 0.5 L 25.472138578567687 -0.5 L 25 -0.5 Z M 62.138804609451476 0.5 L 62.610943188019164 0.5 L 62.610943188019164 3.5 L 69.61094318801916 0 L 62.610943188019164 -3.5 L 62.610943188019164 -0.5 L 62.138804609451476 -0.5 Z"/><text text-anchor="middle" pointer-events="none" font-size="8px" fill="#000000" x="43.80547159400958" y="3" transform="rotate(180 43.80547159400958 0)" font-family="sans-serif">CONT…</text></g><g class="relationship" transform="translate(110.96275235224039 136.56749543634893) rotate(378.30671879598947)"><path class="outline" fill="#A5ABB6" stroke="none" d="M 25 0.5 L 27.609892728301737 0.5 L 27.609892728301737 -0.5 L 25 -0.5 Z M 71.24322784182712 0.5 L 73.85312057012887 0.5 L 73.85312057012887 3.5 L 80.85312057012887 0 L 73.85312057012887 -3.5 L 73.85312057012887 -0.5 L 71.24322784182712 -0.5 Z"/><text text-anchor="middle" pointer-events="none" font-size="8px" fill="#000000" x="49.42656028506443" y="3" font-family="sans-serif">CONTAI…</text></g><g class="relationship" transform="translate(110.96275235224039 136.56749543634893) rotate(313.6073857454245)"><path class="outline" fill="#A5ABB6" stroke="none" d="M 25 0.5 L 26.366713560132695 0.5 L 26.366713560132695 -0.5 L 25 -0.5 Z M 62.13337997248621 0.5 L 63.500093532618905 0.5 L 63.500093532618905 3.5 L 70.5000935326189 0 L 63.500093532618905 -3.5 L 63.500093532618905 -0.5 L 62.13337997248621 -0.5 Z"/><text text-anchor="middle" pointer-events="none" font-size="8px" fill="#000000" x="44.25004676630945" y="3" font-family="sans-serif">TRAN…</text></g><g class="relationship" transform="translate(110.96275235224039 136.56749543634893) rotate(271.54801155928567)"><path class="outline" fill="#A5ABB6" stroke="none" d="M 25 0.5 L 31.031226750527395 0.5 L 31.031226750527395 -0.5 L 25 -0.5 Z M 95.96456110111333 0.5 L 101.99578785164073 0.5 L 101.99578785164073 3.5 L 108.99578785164073 0 L 101.99578785164073 -3.5 L 101.99578785164073 -0.5 L 95.96456110111333 -0.5 Z"/><text text-anchor="middle" pointer-events="none" font-size="8px" fill="#000000" x="63.497893925820364" y="3" font-family="sans-serif">CONTAINED_IN</text></g><g class="relationship" transform="translate(176.8303976474393 67.41750506755119) rotate(226.14945909954793)"><path class="outline" fill="#A5ABB6" stroke="none" d="M 25 0.5 L 25.542790165099376 0.5 L 25.542790165099376 -0.5 L 25 -0.5 Z M 57.30945657745289 0.5 L 57.85224674255227 0.5 L 57.85224674255227 3.5 L 64.85224674255227 0 L 57.85224674255227 -3.5 L 57.85224674255227 -0.5 L 57.30945657745289 -0.5 Z"/><text text-anchor="middle" pointer-events="none" font-size="8px" fill="#000000" x="41.426123371276134" y="3" transform="rotate(180 41.426123371276134 0)" font-family="sans-serif">CON…</text></g><g class="relationship" transform="translate(176.8303976474393 67.41750506755119) rotate(431.3160634765333)"><path class="outline" fill="#A5ABB6" stroke="none" d="M 25 0.5 L 25.847736349294472 0.5 L 25.847736349294472 -0.5 L 25 -0.5 Z M 75.24773787517339 0.5 L 76.09547422446785 0.5 L 76.09547422446785 3.5 L 83.09547422446785 0 L 76.09547422446785 -3.5 L 76.09547422446785 -0.5 L 75.24773787517339 -0.5 Z"/><text text-anchor="middle" pointer-events="none" font-size="8px" fill="#000000" x="50.547737112233925" y="3" font-family="sans-serif">CONTAIN…</text></g><g class="relationship" transform="translate(176.8303976474393 67.41750506755119) rotate(181.29915872759597)"><path class="outline" fill="#A5ABB6" stroke="none" d="M 25 0.5 L 27.651972411817404 0.5 L 27.651972411817404 -0.5 L 25 -0.5 Z M 92.58530676240335 0.5 L 95.23727917422075 0.5 L 95.23727917422075 3.5 L 102.23727917422075 0 L 95.23727917422075 -3.5 L 95.23727917422075 -0.5 L 92.58530676240335 -0.5 Z"/><text text-anchor="middle" pointer-events="none" font-size="8px" fill="#000000" x="60.11863958711037" y="3" transform="rotate(180 60.11863958711037 0)" font-family="sans-serif">CONTAINED_IN</text></g><g class="relationship" transform="translate(114.58259652513901 2.620610850906474) rotate(496.37475840116457)"><path class="outline" fill="#A5ABB6" stroke="none" d="M 25 0.5 L 25.484496654679 0.5 L 25.484496654679 -0.5 L 25 -0.5 Z M 57.251163067032515 0.5 L 57.735659721711514 0.5 L 57.735659721711514 3.5 L 64.73565972171151 0 L 57.735659721711514 -3.5 L 57.735659721711514 -0.5 L 57.251163067032515 -0.5 Z"/><text text-anchor="middle" pointer-events="none" font-size="8px" fill="#000000" x="41.36782986085576" y="3" transform="rotate(180 41.36782986085576 0)" font-family="sans-serif">CON…</text></g></g><g class="layer nodes"><g class="node" transform="translate(110.96275235224039,136.56749543634893)"><circle class="outline" cx="0" cy="0" r="25" fill="#A5ABB6" stroke="#9AA1AC" stroke-width="2px"/><text text-anchor="middle" pointer-events="none" font-family="sans-serif" dy="1.5625" font-size="25" fill="#FFFFFF"/><text text-anchor="middle" pointer-events="none" x="0" y="5" font-size="10px" fill="#FFFFFF" font-family="sans-serif"> DNAmer</text></g><g class="node" transform="translate(211.45850366838525,169.81636161006693)"><circle class="outline" cx="0" cy="0" r="25" fill="#57C7E3" stroke="#23b3d7" stroke-width="2px"/><text text-anchor="middle" pointer-events="none" font-family="sans-serif" dy="1.5625" font-size="25" fill="#2A2C34"/><text text-anchor="middle" pointer-events="none" x="0" y="5" font-size="10px" fill="#2A2C34" font-family="sans-serif"> Read</text></g><g class="node" transform="translate(176.8303976474393,67.41750506755119)"><circle class="outline" cx="0" cy="0" r="25" fill="#A5ABB6" stroke="#9AA1AC" stroke-width="2px"/><text text-anchor="middle" pointer-events="none" font-family="sans-serif" dy="1.5625" font-size="25" fill="#FFFFFF"/><text text-anchor="middle" pointer-events="none" x="0" y="5" font-size="10px" fill="#FFFFFF" font-family="sans-serif"> AAmer</text></g><g class="node" transform="translate(114.58259652513901,2.620610850906474)"><circle class="outline" cx="0" cy="0" r="25" fill="#8DCC93" stroke="#5db665" stroke-width="2px"/><text text-anchor="middle" pointer-events="none" font-family="sans-serif" dy="1.5625" font-size="25" fill="#2A2C34"/><text text-anchor="middle" pointer-events="none" x="0" y="5" font-size="10px" fill="#2A2C34" font-family="sans-serif"> Genome</text></g><g class="node" transform="translate(49.62582579142905,64.53269821306088)"><circle class="outline" cx="0" cy="0" r="25" fill="#A5ABB6" stroke="#9AA1AC" stroke-width="2px"/><text text-anchor="middle" pointer-events="none" font-family="sans-serif" dy="1.5625" font-size="25" fill="#FFFFFF"/><text text-anchor="middle" pointer-events="none" x="0" y="5" font-size="10px" fill="#FFFFFF" font-family="sans-serif"> Annotati…</text></g><g class="node" transform="translate(-48.69382572600923,108.60091011945661)"><circle class="outline" cx="0" cy="0" r="25" fill="#A5ABB6" stroke="#9AA1AC" stroke-width="2px"/><text text-anchor="middle" pointer-events="none" font-family="sans-serif" dy="1.5625" font-size="25" fill="#FFFFFF"/><text text-anchor="middle" pointer-events="none" x="0" y="5" font-size="10px" fill="#FFFFFF" font-family="sans-serif"> Pathway</text></g></g></svg>